<?xml version="1.0" standalone="no"?><!-- Generator: Gravit.io --><svg xmlns="http://www.w3.org/2000/svg" xmlns:xlink="http://www.w3.org/1999/xlink" style="isolation:isolate" viewBox="0 0 228 64" width="228" height="64"><defs><clipPath id="_clipPath_THlDsNC96xvBtdll3b0lJbNIreocSWxR"><rect width="228" height="64"/></clipPath></defs><g clip-path="url(#_clipPath_THlDsNC96xvBtdll3b0lJbNIreocSWxR)"><clipPath id="_clipPath_3jQkIqSrs28tdvmXokUuSeENB7O6u8RW"><rect x="0" y="0" width="228" height="64" transform="matrix(1,0,0,1,0,0)" fill="rgb(255,255,255)"/></clipPath><g clip-path="url(#_clipPath_3jQkIqSrs28tdvmXokUuSeENB7O6u8RW)"><g><path d=" M 228 35.59 C 228 42.29 223.42 47.71 215.88 47.71 C 208.34 47.71 203.8 42.29 203.8 35.59 C 203.8 28.89 208.42 23.47 215.8 23.47 C 219.058 23.346 222.221 24.581 224.534 26.879 C 226.847 29.176 228.102 32.331 228 35.59 Z  M 209.55 35.59 C 209.55 39.13 211.67 42.43 215.87 42.43 C 220.07 42.43 222.19 39.13 222.19 35.59 C 222.19 32.05 219.74 28.7 215.87 28.7 C 211.72 28.71 209.55 32.1 209.55 35.59 Z " fill="rgb(248,248,255)"/><path d=" M 102.5 29.45 C 102.2 29.807 101.674 29.869 101.3 29.59 C 99.827 28.487 98.019 27.925 96.18 28 C 93.44 28 91.93 28.85 91.93 30.31 C 91.93 31.77 93.3 32.67 96.27 32.86 C 100.66 33.14 106.27 34.13 106.27 40.31 C 106.27 44.41 102.92 47.95 96.27 47.95 C 92.78 47.95 89.27 47.4 86.05 44.33 C 85.741 44.027 85.695 43.546 85.94 43.19 L 87.76 40.54 C 87.902 40.335 88.123 40.198 88.37 40.164 C 88.618 40.13 88.868 40.201 89.06 40.36 C 91.174 41.924 93.696 42.841 96.32 43 C 98.49 43 100.52 41.92 100.52 40.22 C 100.52 38.52 99.2 38 95.89 37.76 C 91.5 37.43 86.27 35.83 86.27 30.54 C 86.27 25.25 91.84 23.28 96.08 23.28 C 99.38 23.28 101.94 23.87 104.4 25.74 C 104.595 25.888 104.722 26.11 104.75 26.353 C 104.778 26.597 104.706 26.841 104.55 27.03 L 102.5 29.45 L 102.5 29.45 Z " fill="rgb(102,119,136)"/><path d=" M 113.07 37.62 C 113.45 40.5 115.95 42.62 120.01 42.62 C 122.019 42.617 123.985 42.034 125.67 40.94 C 126.02 40.677 126.51 40.711 126.82 41.02 L 129.26 43.43 C 129.436 43.609 129.53 43.853 129.519 44.103 C 129.507 44.354 129.392 44.588 129.2 44.75 C 126.547 46.805 123.275 47.898 119.92 47.85 C 111.92 47.85 107.14 42.85 107.14 35.44 C 107.14 28.36 111.95 23.27 119.5 23.27 C 127.05 23.27 132.66 27.86 131 36.9 C 130.922 37.324 130.552 37.632 130.12 37.63 L 113.07 37.62 L 113.07 37.62 Z  M 125.71 32.86 C 125.33 29.86 122.97 28.33 119.71 28.33 C 116.6 28.33 114.05 29.84 113.2 32.86 L 125.71 32.86 L 125.71 32.86 Z " fill="rgb(102,119,136)"/><path d=" M 139.09 24.79 L 139.3 29.07 C 140.79 25.18 143.67 23.33 146.03 23.33 C 147.977 23.319 149.878 23.924 151.46 25.06 C 151.796 25.324 151.897 25.79 151.7 26.17 L 149.92 29.6 C 149.806 29.823 149.605 29.989 149.364 30.057 C 149.123 30.126 148.864 30.09 148.65 29.96 C 147.651 29.307 146.472 28.985 145.28 29.04 C 142.28 29.04 139.48 30.64 139.48 34.94 L 139.48 46.31 C 139.48 46.802 139.082 47.2 138.59 47.2 L 134.59 47.2 C 134.098 47.2 133.7 46.802 133.7 46.31 L 133.7 24.83 C 133.7 24.338 134.098 23.94 134.59 23.94 L 138.18 23.94 C 138.664 23.929 139.068 24.306 139.09 24.79 L 139.09 24.79 L 139.09 24.79 Z " fill="rgb(102,119,136)"/><path d=" M 176.1 16.89 L 176.1 46.31 C 176.1 46.802 175.702 47.2 175.21 47.2 L 171.51 47.2 C 171.059 47.198 170.681 46.858 170.63 46.41 L 170.34 44 C 168.673 46.479 165.823 47.896 162.84 47.73 C 156 47.73 150.84 43.2 150.84 35.56 C 150.84 27.56 155.84 23.39 162.68 23.39 C 165.13 23.39 168.95 24.71 170.32 27.12 L 170.32 16.89 C 170.32 16.398 170.718 16 171.21 16 L 175.21 16 C 175.446 16 175.672 16.094 175.839 16.261 C 176.006 16.428 176.1 16.654 176.1 16.89 L 176.1 16.89 L 176.1 16.89 Z  M 156.62 35.55 C 156.525 37.996 157.776 40.299 159.881 41.55 C 161.985 42.801 164.605 42.801 166.709 41.55 C 168.814 40.299 170.065 37.996 169.97 35.55 C 170.011 33.744 169.314 31.999 168.041 30.718 C 166.767 29.437 165.026 28.73 163.22 28.76 C 161.42 28.706 159.681 29.411 158.426 30.702 C 157.171 31.994 156.515 33.752 156.62 35.55 Z " fill="rgb(102,119,136)"/><path d=" M 77 27.43 C 76.657 25.286 74.768 23.734 72.598 23.813 C 70.428 23.891 68.657 25.576 68.47 27.74 L 67.36 27.91 L 65.66 17.27 C 64.791 12.047 60.294 8.205 55 8.16 C 54.438 8.161 53.876 8.204 53.32 8.29 L 36 11 L 35.57 8.27 L 35.57 8.27 C 37.563 7.421 38.608 5.217 38.003 3.137 C 37.398 1.057 35.334 -0.243 33.196 0.109 C 31.059 0.462 29.522 2.356 29.617 4.52 C 29.712 6.685 31.41 8.436 33.57 8.6 L 34 11.32 L 16.72 14 C 10.835 14.928 6.81 20.442 7.72 26.33 L 9.4 37 L 8.27 37.18 C 7.442 35.184 5.254 34.12 3.173 34.704 C 1.092 35.288 -0.225 37.334 0.106 39.469 C 0.437 41.605 2.311 43.157 4.471 43.083 C 6.631 43.009 8.395 41.333 8.58 39.18 L 9.71 39 L 11.26 48.91 C 12.139 54.128 16.638 57.962 21.93 58 C 22.492 57.999 23.054 57.956 23.61 57.87 L 46.61 54.26 L 59.26 63.46 C 59.738 63.812 60.316 64.001 60.91 64 C 61.053 64.014 61.197 64.014 61.34 64 C 61.694 63.94 62.033 63.815 62.34 63.63 C 63.306 63.036 63.822 61.921 63.65 60.8 L 62.21 51.66 C 67.069 49.9 70.002 44.947 69.21 39.84 L 67.64 29.93 L 68.77 29.76 C 69.587 31.805 71.816 32.902 73.935 32.303 C 76.053 31.703 77.376 29.599 77 27.43 L 77 27.43 L 77 27.43 Z  M 62.73 44.53 C 61.925 45.65 60.703 46.4 59.34 46.61 L 58.61 46.72 C 57.873 46.828 57.209 47.228 56.769 47.83 C 56.329 48.431 56.149 49.184 56.27 49.92 L 57.07 54.92 L 49 49.07 C 48.522 48.718 47.944 48.529 47.35 48.53 L 46.92 48.53 L 22.74 52.34 C 21.374 52.57 19.974 52.238 18.856 51.421 C 17.738 50.604 16.996 49.371 16.8 48 L 13.26 25.49 C 12.823 22.656 14.758 20.001 17.59 19.55 L 54.18 13.82 C 55.543 13.59 56.94 13.919 58.058 14.732 C 59.176 15.544 59.919 16.773 60.12 18.14 L 63.67 40.68 C 63.887 42.038 63.548 43.425 62.73 44.53 Z " fill="rgb(102,119,136)"/><path d=" M 202.63 35.59 C 202.63 42.29 198.05 47.71 190.51 47.71 C 182.97 47.71 178.43 42.28 178.43 35.59 C 178.43 28.9 183.05 23.47 190.43 23.47 C 193.688 23.346 196.851 24.581 199.164 26.879 C 201.477 29.176 202.732 32.331 202.63 35.59 Z  M 184.18 35.59 C 184.18 39.13 186.3 42.43 190.5 42.43 C 194.7 42.43 196.82 39.13 196.82 35.59 C 196.82 32.05 194.37 28.7 190.5 28.7 C 186.36 28.71 184.19 32.1 184.19 35.59 L 184.18 35.59 L 184.18 35.59 Z " fill="rgb(255,255,255)"/><path d=" M 22.265 30.656 C 21.766 28.02 23.504 25.474 26.144 24.973 C 28.785 24.472 31.335 26.205 31.835 28.84 C 32.335 31.476 30.597 34.022 27.956 34.523 C 25.315 35.024 22.765 33.291 22.265 30.656 Z " fill="rgb(255,255,255)"/><path d=" M 43.405 26.655 C 42.905 24.019 44.644 21.473 47.285 20.973 C 49.926 20.472 52.475 22.206 52.975 24.841 C 53.474 27.477 51.735 30.022 49.095 30.523 C 46.454 31.023 43.904 29.29 43.405 26.655 Z " fill="rgb(255,255,255)"/></g></g></g></svg>